<svg xmlns="http://www.w3.org/2000/svg" viewBox="0 0 40 40"><defs><style>.cls-1{fill:#cc8aff;}</style></defs><title>favicon</title><g id="Layer_1" data-name="Layer 1"><path class="cls-1" d="M20,0A20,20,0,1,0,40,20,19.94,19.94,0,0,0,20,0ZM15,6.18H25a1.5,1.5,0,0,1,0,3H15a1.5,1.5,0,0,1,0-3Zm5,28.14a12,12,0,1,1,12-12A12.05,12.05,0,0,1,20,34.32Z"/></g><g id="Layer_2" data-name="Layer 2"><path class="cls-1" d="M20,13.23a9,9,0,1,0,9,9.05A9.05,9.05,0,0,0,20,13.23Zm1.42,9.3a1.5,1.5,0,0,1-3,0V15.78a1.5,1.5,0,0,1,3,0Z"/></g></svg>